<!DOCTYPE svg PUBLIC "-//W3C//DTD SVG 1.1//EN" "http://www.w3.org/Graphics/SVG/1.1/DTD/svg11.dtd">
<!-- Uploaded to: SVG Repo, www.svgrepo.com, Transformed by: SVG Repo Mixer Tools -->
<svg fill="#ff0000" height="800px" width="800px" version="1.1" id="Capa_1" xmlns="http://www.w3.org/2000/svg" xmlns:xlink="http://www.w3.org/1999/xlink" viewBox="0 0 395.17 395.17" xml:space="preserve" stroke="#ff0000">
<g id="SVGRepo_bgCarrier" stroke-width="0"/>
<g id="SVGRepo_tracerCarrier" stroke-linecap="round" stroke-linejoin="round"/>
<g id="SVGRepo_iconCarrier"> <path d="M364.204,305.151c12.082-33.33,18.455-70.27,18.455-107.571c0-37.294-6.373-74.23-18.454-107.56 c2.395-0.087,4.614-1.305,5.956-3.304c1.393-2.076,1.66-4.709,0.712-7.022L355.844,43.01c-1.154-2.817-3.896-4.657-6.94-4.657 h-9.872c-8.433-13.318-17.902-25.449-28.213-36.076C309.406,0.822,307.465,0,305.436,0H89.745c-2.03,0-3.973,0.823-5.385,2.28 c-10.3,10.626-19.768,22.756-28.209,36.073h-9.883c-3.044,0-5.786,1.84-6.94,4.657L24.3,79.693c-0.947,2.313-0.68,4.946,0.712,7.022 c1.342,1.999,3.559,3.216,5.954,3.304c-12.082,33.33-18.455,70.266-18.455,107.561c0,37.301,6.373,74.241,18.455,107.571 c-2.394,0.088-4.612,1.305-5.954,3.304c-1.393,2.076-1.66,4.708-0.712,7.022l15.027,36.682c1.154,2.817,3.896,4.657,6.94,4.657 h9.883c8.441,13.317,17.909,25.447,28.209,36.074c1.413,1.458,3.355,2.28,5.385,2.28h215.691c2.028,0,3.97-0.822,5.383-2.277 c10.311-10.627,19.78-22.758,28.213-36.077h9.872c3.044,0,5.786-1.84,6.94-4.657l15.027-36.682c0.948-2.313,0.681-4.946-0.712-7.022 C368.818,306.456,366.599,305.238,364.204,305.151z M348.202,305.134h-27.006c8.878-33.287,13.562-70.234,13.562-107.554 c0-37.314-4.684-74.258-13.562-107.543h27.006c12.73,33.001,19.456,70.059,19.456,107.543 C367.658,235.071,360.932,272.133,348.202,305.134z M89.515,305.134c-9.23-33.018-14.103-70.065-14.103-107.554 c0-37.483,4.873-74.526,14.103-107.543h53.433c-3.08,27.859-4.9,57.75-5.414,89.07c-13.415,4.317-23.152,16.913-23.152,31.745 c0,15.12,10.119,27.913,23.938,31.985c0.905,21.668,2.452,42.566,4.628,62.298H89.515z M147.726,229.196 c-10.115,0-18.344-8.229-18.344-18.344s8.229-18.344,18.344-18.344s18.344,8.229,18.344,18.344S157.842,229.196,147.726,229.196z M158.047,305.134c-2.185-19.426-3.754-40.024-4.679-61.425c15.707-2.689,27.703-16.395,27.703-32.857 c0-16.746-12.409-30.642-28.514-32.99c0.55-30.929,2.39-60.406,5.481-87.825h79.094c3.712,33.042,5.667,70.061,5.667,107.543 c0,37.489-1.955,74.511-5.667,107.554H158.047z M252.219,90.036h53.435c9.23,33.018,14.103,70.061,14.103,107.543 c0,37.489-4.873,74.536-14.103,107.554h-53.435c3.653-33.169,5.58-70.144,5.58-107.554 C257.799,160.176,255.872,123.204,252.219,90.036z M321.038,38.354h-18.38c-3.856-8.265-8.023-16.067-12.454-23.354h12.023 C308.907,22.119,315.194,29.944,321.038,38.354z M285.993,38.354H244.56c-1.605-8.292-3.335-16.101-5.174-23.354h33.026 C277.242,22.145,281.782,29.968,285.993,38.354z M223.893,15c1.91,7.175,3.711,14.989,5.383,23.354h-63.383 c1.672-8.365,3.473-16.179,5.383-23.354H223.893z M155.783,15c-1.839,7.253-3.569,15.062-5.174,23.354h-41.428 c4.226-8.409,8.766-16.232,13.584-23.354H155.783z M92.957,15h12.015c-4.422,7.269-8.589,15.071-12.457,23.354H74.15 C79.997,29.944,86.283,22.119,92.957,15z M51.301,53.354h292.571l8.882,21.683H42.418L51.301,53.354z M46.968,90.036h27.006 c-8.878,33.286-13.561,70.23-13.561,107.543c0,37.32,4.684,74.268,13.561,107.554H46.968 c-12.73-33.001-19.456-70.063-19.456-107.554C27.511,160.095,34.238,123.037,46.968,90.036z M74.149,356.816h18.365 c3.869,8.283,8.036,16.085,12.458,23.354H92.957C86.283,373.051,79.997,365.225,74.149,356.816z M109.181,356.816h41.428 c1.605,8.292,3.335,16.101,5.174,23.354h-33.018C117.948,373.049,113.407,365.226,109.181,356.816z M171.277,380.17 c-1.91-7.175-3.711-14.989-5.383-23.354h63.383c-1.672,8.365-3.473,16.179-5.383,23.354H171.277z M239.387,380.17 c1.839-7.253,3.569-15.062,5.174-23.354h41.433c-4.212,8.386-8.752,16.209-13.581,23.354H239.387z M302.226,380.17h-12.023 c4.432-7.287,8.598-15.089,12.455-23.354h18.38C315.194,365.225,308.907,373.051,302.226,380.17z M343.872,341.816H51.3 l-8.882-21.682h310.336L343.872,341.816z"/> </g>
</svg>