<svg class="animated" id="freepik_stories-drinking-wine" xmlns="http://www.w3.org/2000/svg" viewBox="0 0 500 500" version="1.1" xmlns:xlink="http://www.w3.org/1999/xlink" xmlns:svgjs="http://svgjs.com/svgjs"><style>svg#freepik_stories-drinking-wine:not(.animated) .animable {opacity: 0;}svg#freepik_stories-drinking-wine.animated #freepik--background-simple--inject-62 {animation: 3s Infinite  linear floating;animation-delay: 0.5s;}svg#freepik_stories-drinking-wine.animated #freepik--Table--inject-62 {animation: 3s Infinite  linear wind;animation-delay: 0s;}            @keyframes floating {                0% {                    opacity: 1;                    transform: translateY(0px);                }                50% {                    transform: translateY(-10px);                }                100% {                    opacity: 1;                    transform: translateY(0px);                }            }                    @keyframes wind {                0% {                    transform: rotate( 0deg );                }                25% {                    transform: rotate( 1deg );                }                75% {                    transform: rotate( -1deg );                }            }        .animator-hidden { display: none; }</style><g id="freepik--background-simple--inject-62" class="animable" style="transform-origin: 247.729px 250.28px;"><path d="M383.16,133.14a212.8,212.8,0,0,0-10.85-19C326.19,43.85,202.7,5.57,141.51,78.25,126.92,95.57,121.84,116.5,112,136.37c-22.32,45.18-64,72.2-90.2,114-20.27,32.43-17.57,74-6.26,109.06,12.29,38.1,33.92,64.71,68.52,84.94,38.79,22.67,80.27,16.38,122.2,8.49,18.85-3.55,38.29-7.17,57.57-5.82,24.14,1.7,48,8.53,71.92,11.85,24.9,3.45,50.74,4.27,74.73-3.26,76.83-24.09,95-137,63.44-201.73-11.18-22.9-30.14-40.56-47.74-58.49C407.2,176.1,395.56,157.16,383.16,133.14Z" style="fill: #9A0C0C; transform-origin: 247.729px 250.28px;" id="el9l5ziozms14" class="animable"></path><g id="eltgwpk48bfam"><path d="M383.16,133.14a212.8,212.8,0,0,0-10.85-19C326.19,43.85,202.7,5.57,141.51,78.25,126.92,95.57,121.84,116.5,112,136.37c-22.32,45.18-64,72.2-90.2,114-20.27,32.43-17.57,74-6.26,109.06,12.29,38.1,33.92,64.71,68.52,84.94,38.79,22.67,80.27,16.38,122.2,8.49,18.85-3.55,38.29-7.17,57.57-5.82,24.14,1.7,48,8.53,71.92,11.85,24.9,3.45,50.74,4.27,74.73-3.26,76.83-24.09,95-137,63.44-201.73-11.18-22.9-30.14-40.56-47.74-58.49C407.2,176.1,395.56,157.16,383.16,133.14Z" style="fill: rgb(255, 255, 255); opacity: 0.7; transform-origin: 247.729px 250.28px;" class="animable" id="eljpz8baom1zd"></path></g></g><g id="freepik--Windows--inject-62" class="animable animator-hidden" style="transform-origin: 324.03px 168.69px;"><g id="el1tjcbfgytkz"><g style="opacity: 0.3; transform-origin: 324.03px 168.69px;" class="animable" id="elz9cez3pc5hr"><rect x="335.58" y="34.92" width="132.83" height="267.5" style="fill: none; stroke: rgb(0, 0, 0); stroke-linecap: round; stroke-linejoin: round; transform-origin: 401.995px 168.67px;" id="el0k6do0zzi0d" class="animable"></rect><path d="M468.12,65.78V61.46H445.24V35h-4.11V61.46H418.05V35h-4.11V61.46H390.86V35h-4.1V61.46H363.67V35h-4.1V61.46H335.62v4.32h23.95V91.52H335.62v4.32h23.95v25.74H335.62v4.32h23.95v25.74H335.62V156h23.95V181.7H335.62V186h23.95v25.75H335.62v4.31h23.95v25.75H335.62v4.32h23.95v25.74H335.62v4.32h23.95v26.25h4.1V276.21h23.09v26.25h4.1V276.21h23.08v26.25h4.11V276.21h23.08v26.25h4.11V276.21h22.88v-4.32H445.24V246.15h22.88v-4.32H445.24V216.08h22.88v-4.31H445.24V186h22.88V181.7H445.24V156h22.88v-4.32H445.24V125.9h22.88v-4.32H445.24V95.84h22.88V91.52H445.24V65.78Zm-54.18,0V91.52H390.86V65.78Zm-23.08,146V186h23.08v25.75Zm23.08,4.31v25.75H390.86V216.08ZM390.86,181.7V156h23.08V181.7Zm0-30.06V125.9h23.08v25.74Zm0-30.06V95.84h23.08v25.74Zm-27.19-55.8h23.09V91.52H363.67Zm0,30.06h23.09v25.74H363.67Zm0,30.06h23.09v25.74H363.67Zm0,30.06h23.09V181.7H363.67Zm0,30.06h23.09v25.75H363.67Zm0,30.06h23.09v25.75H363.67Zm0,55.81V246.15h23.09v25.74Zm27.19,0V246.15h23.08v25.74Zm50.27,0H418.05V246.15h23.08Zm0-30.06H418.05V216.08h23.08Zm0-30.06H418.05V186h23.08Zm0-30.07H418.05V156h23.08Zm0-30.06H418.05V125.9h23.08Zm0-30.06H418.05V95.84h23.08Zm0-30.06H418.05V65.78h23.08Z" style="fill: none; stroke: rgb(0, 0, 0); stroke-linecap: round; stroke-linejoin: round; transform-origin: 401.87px 168.73px;" id="eljnobj715z6o" class="animable"></path><rect x="179.65" y="125.92" width="132.83" height="176.5" style="fill: none; stroke: rgb(0, 0, 0); stroke-linecap: round; stroke-linejoin: round; transform-origin: 246.065px 214.17px;" id="el1uq6fvkdl3o" class="animable"></rect><path d="M289.31,125.92h-4.1v25.72H262.12V125.92H258v25.72H234.93V125.92h-4.1v25.72H207.74V125.92h-4.1v25.72H179.7V156h23.94V181.7H179.7V186h23.94v25.75H179.7v4.31h23.94v25.75H179.7v4.32h23.94v25.74H179.7v4.32h23.94v26.25h4.1V276.21h23.09v26.25h4.1V276.21H258v26.25h4.1V276.21h23.09v26.25h4.1V276.21H312.2v-4.32H289.31V246.15H312.2v-4.32H289.31V216.08H312.2v-4.31H289.31V186H312.2V181.7H289.31V156H312.2v-4.32H289.31Zm-58.48,146H207.74V246.15h23.09Zm0-30.06H207.74V216.08h23.09Zm0-30.06H207.74V186h23.09Zm0-30.07H207.74V156h23.09ZM258,271.89H234.93V246.15H258Zm0-30.06H234.93V216.08H258Zm0-30.06H234.93V186H258Zm0-30.07H234.93V156H258Zm27.19,90.19H262.12V246.15h23.09Zm0-30.06H262.12V216.08h23.09Zm0-30.06H262.12V186h23.09Zm0-30.07H262.12V156h23.09Z" style="fill: none; stroke: rgb(0, 0, 0); stroke-linecap: round; stroke-linejoin: round; transform-origin: 245.95px 214.19px;" id="elj75owa2c4x" class="animable"></path></g></g></g><g id="freepik--Plant--inject-62" class="animable animator-hidden" style="transform-origin: 55.7967px 318.311px;"><path d="M16.31,277c2.52,1.1,8.68,1,8.69,1s-1.33-4-1.44-4.28c-1.36-2.83-5.63-7.5-9.11-7a4.15,4.15,0,0,0-3.33,5.21C11.69,274.23,14.17,276,16.31,277Z" style="fill: rgb(38, 50, 56); transform-origin: 17.9839px 272.343px;" id="elqil8zvabngk" class="animable"></path><path d="M18.44,294.81c2.61.38,8.11-1.21,8.55-1.34a75.29,75.29,0,0,0,3.33,9.23c.76,1.75,1.58,3.49,2.42,5.22-.5-.73-1-1.38-1-1.47-2.05-2.37-7.41-5.75-10.64-4.37a4.15,4.15,0,0,0-1.84,5.9c1.19,2.17,4.05,3.25,6.37,3.58s7.06-.92,8.31-1.27c.33.66.65,1.33,1,2,1.59,3.17,3.2,6.32,4.67,9.47.52,1.11,1,2.22,1.47,3.33-.44-.65-.82-1.2-.89-1.28-2-2.37-7.41-5.74-10.64-4.37a4.15,4.15,0,0,0-1.84,5.9c1.19,2.17,4.05,3.25,6.37,3.59s6.6-.81,8.08-1.22c.46,1.15.92,2.3,1.3,3.44.25.78.54,1.52.75,2.32s.44,1.56.65,2.33c.36,1.5.74,3,1,4.52.23,1,.43,2,.63,3C46,342.19,45,340,44.84,339.87c-1.67-2.66-6.45-6.81-9.85-5.94a4.16,4.16,0,0,0-2.72,5.56c.85,2.32,3.52,3.82,5.75,4.5,2.47.76,7.93.07,8.61,0,.33,1.63.63,3.22.89,4.72.14.8.26,1.55.39,2.3h2.17c-.16-.87-.33-1.75-.51-2.68-.33-1.66-.71-3.42-1.12-5.23a43.1,43.1,0,0,0,4.8-2.26c1.8,1.95,6.4,4.23,7,4.52-.63,1.54-1.25,3-1.86,4.43-.19.42-.37.82-.54,1.22h2.28c.06-.14.12-.27.17-.41.65-1.56,1.3-3.25,2-5,.66.14,6.06,1.24,8.58.67,2.28-.52,5-1.81,6.07-4.07a4.14,4.14,0,0,0-2.29-5.74c-3.33-1.12-8.41,2.66-10.27,5.18-.11.15-1.12,1.9-1.74,3,.27-.71.53-1.39.79-2.13.54-1.44,1-2.91,1.55-4.47.23-.77.46-1.55.7-2.33s.41-1.61.62-2.43c.46-1.9.82-3.85,1.15-5.82,1.27.46,5.8,2,8.14,1.87s5.27-1,6.62-3.09a4.16,4.16,0,0,0-1.4-6c-3.12-1.61-8.71,1.36-10.93,3.57-.14.14-1.56,1.9-2.32,2.89.19-1.19.38-2.37.53-3.58.43-3.48.76-7,1.11-10.54.1-1.08.22-2.16.33-3.23.45.17,5.8,2.16,8.42,2,2.34-.16,5.27-1,6.62-3.1a4.15,4.15,0,0,0-1.39-6c-3.12-1.61-8.72,1.36-10.94,3.57-.17.16-2.2,2.71-2.69,3.38.25-2.37.53-4.73.89-7.05a72.78,72.78,0,0,1,2-9.27c.21.08,5.78,2.18,8.47,2,2.34-.16,5.27-1,6.62-3.1a4.15,4.15,0,0,0-1.4-6c-3.12-1.61-8.71,1.36-10.93,3.57-.18.17-2.37,2.91-2.73,3.43.06-.17.09-.36.14-.54a54.31,54.31,0,0,1,3.68-8.77c.8-1.56,1.65-3,2.5-4.4,1,.5,5.58,2.72,8,2.82s5.35-.44,6.92-2.35A4.16,4.16,0,0,0,93,273.3c-2.93-1.95-8.81.39-11.27,2.34-.13.11-1.36,1.34-2.25,2.25.4-.63.79-1.27,1.19-1.86,1.47-2.21,3-4.15,4.27-5.85.76-1,1.47-1.82,2.14-2.61,1.23,0,6.2-.17,8.37-1.19s4.55-2.86,5.06-5.28A4.16,4.16,0,0,0,97,256c-3.49-.37-7.64,4.41-8.92,7.28-.11.24-1.39,4.31-1.32,4.31h.07c-.66.75-1.36,1.56-2.1,2.47-1.37,1.67-2.9,3.58-4.42,5.77a74.71,74.71,0,0,0-4.58,7.29,54.08,54.08,0,0,0-3.91,8.81l0,.11c0-1,0-3.91-.06-4.13-.4-3.11-3-8.88-6.46-9.52a4.16,4.16,0,0,0-4.79,3.91c-.2,2.47,1.59,4.94,3.34,6.5,2,1.76,7.43,3.47,7.87,3.6a72.21,72.21,0,0,0-2.31,9.54c-.34,1.88-.62,3.78-.87,5.69,0-.89,0-1.69,0-1.8-.4-3.11-3-8.88-6.46-9.51a4.14,4.14,0,0,0-4.79,3.9c-.2,2.47,1.59,4.95,3.33,6.51s6.41,3.12,7.64,3.52c-.09.73-.19,1.46-.28,2.2-.42,3.52-.82,7-1.33,10.48-.17,1.21-.39,2.4-.61,3.58,0-.79,0-1.45,0-1.55-.4-3.11-3-8.88-6.46-9.52a4.15,4.15,0,0,0-4.79,3.91c-.2,2.47,1.59,4.94,3.33,6.5s6,3,7.42,3.45c-.26,1.21-.51,2.42-.82,3.58-.22.79-.38,1.57-.65,2.34s-.5,1.55-.75,2.31c-.52,1.45-1.06,2.95-1.61,4.35-.37,1-.75,1.9-1.13,2.84.19-1.21.52-3.57.52-3.77a16.11,16.11,0,0,0-2.16-7.85,4.74,4.74,0,0,0-.06-.92,4.15,4.15,0,0,0-5.08-3.52c-3.39.9-5.54,6.85-5.71,10,0,.19.12,2.2.21,3.48-.17-.74-.32-1.46-.51-2.22-.36-1.5-.76-3-1.18-4.59-.23-.76-.46-1.54-.7-2.32s-.55-1.58-.82-2.37c-.67-1.84-1.44-3.66-2.26-5.49,1.32-.31,6-1.5,7.83-2.93s3.83-3.76,3.81-6.23a4.16,4.16,0,0,0-4.49-4.26c-3.49.38-6.52,5.94-7.15,9,0,.19-.25,2.45-.34,3.69-.5-1.09-1-2.19-1.53-3.27-1.56-3.15-3.23-6.28-4.89-9.41-.51-1-1-1.92-1.51-2.88.47-.11,6-1.4,8.12-3,1.85-1.42,3.82-3.76,3.81-6.24a4.16,4.16,0,0,0-4.49-4.25c-3.49.38-6.52,5.94-7.15,9-.05.23-.34,3.48-.38,4.3-1.1-2.11-2.17-4.23-3.15-6.36a74.29,74.29,0,0,1-3.43-8.85c.22-.05,6-1.37,8.17-3,1.85-1.43,3.82-3.76,3.81-6.24a4.15,4.15,0,0,0-4.49-4.25c-3.49.38-6.52,5.94-7.15,9,0,.24-.37,3.73-.38,4.36-.05-.17-.13-.35-.18-.52a53,53,0,0,1-1.78-9.35c-.19-1.74-.28-3.42-.33-5.05,1.1-.14,6.15-.81,8.24-2.07s4.22-3.32,4.47-5.78a4.15,4.15,0,0,0-4-4.72c-3.51,0-7.13,5.18-8.1,8.17-.05.16-.4,1.87-.64,3.11,0-.73,0-1.5,0-2.2,0-2.66.18-5.09.34-7.24.11-1.22.23-2.33.35-3.36,1-.7,5.07-3.56,6.32-5.61s2.22-4.89,1.31-7.19A4.15,4.15,0,0,0,28,249.15c-3.12,1.61-3.94,7.89-3.42,11,0,.27,1.22,4.37,1.27,4.33l.06,0c-.13,1-.27,2.05-.39,3.22-.22,2.15-.44,4.58-.5,7.25a74.7,74.7,0,0,0,.2,8.61,55.15,55.15,0,0,0,1.6,9.5l0,.11c-.55-.87-2.17-3.24-2.32-3.41-2.05-2.37-7.41-5.75-10.64-4.38a4.16,4.16,0,0,0-1.84,5.91C13.26,293.4,16.12,294.47,18.44,294.81Z" style="fill: rgb(38, 50, 56); transform-origin: 56.0299px 299.846px;" id="els3k07kg8qpr" class="animable"></path><path d="M78.64,278.32c.06,0,1.12-4.1,1.16-4.37.43-3.1-.56-9.36-3.72-10.88a4.15,4.15,0,0,0-5.65,2.5c-.85,2.33.23,5.19,1.5,7.15C73.42,275,78.64,278.31,78.64,278.32Z" style="fill: rgb(38, 50, 56); transform-origin: 75.0112px 270.512px;" id="elw191uxzv11r" class="animable"></path><path d="M32.53,351.38h37a0,0,0,0,1,0,0v19.56a17,17,0,0,1-17,17h-3a17,17,0,0,1-17-17V351.38A0,0,0,0,1,32.53,351.38Z" style="fill: rgb(255, 255, 255); stroke: rgb(38, 50, 56); stroke-linecap: round; stroke-miterlimit: 10; transform-origin: 51.03px 369.66px;" id="el42vhxoxtm64" class="animable"></path><path d="M69.58,370v-4.5c-3,2.31-6.77,1.8-9.57,0-5.09-3.21-11-.69-11.26-.59a2,2,0,0,0,1.56,3.59s4.31-1.78,7.61.31A13.27,13.27,0,0,0,65,371,11.5,11.5,0,0,0,69.58,370Z" style="fill: rgb(255, 255, 255); stroke: rgb(38, 50, 56); stroke-linecap: round; stroke-miterlimit: 10; transform-origin: 58.7438px 367.438px;" id="eluo9054op5" class="animable"></path><path d="M32.53,369.42a28.53,28.53,0,0,0,8.18-2.71c6.49-3.12,17.76-7.59,20.33-2.46a2,2,0,0,0,3.49-1.75c-3.1-6.19-11.68-6-25.51.69a25.72,25.72,0,0,1-6.49,2.26Z" style="fill: rgb(255, 255, 255); stroke: rgb(38, 50, 56); stroke-linecap: round; stroke-miterlimit: 10; transform-origin: 48.56px 363.715px;" id="eltaexhi3vkfk" class="animable"></path><circle cx="37.39" cy="360.34" r="1.38" style="fill: rgb(255, 255, 255); stroke: rgb(38, 50, 56); stroke-linecap: round; stroke-miterlimit: 10; transform-origin: 37.39px 360.34px;" id="el2yntqgnkm3g" class="animable"></circle><path d="M46.68,357.58a1.38,1.38,0,1,1-1.37-1.37A1.37,1.37,0,0,1,46.68,357.58Z" style="fill: rgb(255, 255, 255); stroke: rgb(38, 50, 56); stroke-linecap: round; stroke-miterlimit: 10; transform-origin: 45.3px 357.59px;" id="elj2vfoa0suee" class="animable"></path><path d="M56,355.52a1.38,1.38,0,1,1-1.37-1.38A1.37,1.37,0,0,1,56,355.52Z" style="fill: rgb(255, 255, 255); stroke: rgb(38, 50, 56); stroke-linecap: round; stroke-miterlimit: 10; transform-origin: 54.62px 355.52px;" id="elkhdefuqohzj" class="animable"></path><path d="M65.09,356.72a1.38,1.38,0,1,1-2.75,0,1.38,1.38,0,0,1,2.75,0Z" style="fill: rgb(255, 255, 255); stroke: rgb(38, 50, 56); stroke-linecap: round; stroke-miterlimit: 10; transform-origin: 63.715px 356.837px;" id="eli05xk38zmd" class="animable"></path><circle cx="52.36" cy="371.17" r="1.38" style="fill: rgb(255, 255, 255); stroke: rgb(38, 50, 56); stroke-linecap: round; stroke-miterlimit: 10; transform-origin: 52.36px 371.17px;" id="elqncx21bpjq" class="animable"></circle><path d="M60.62,373.93a1.38,1.38,0,1,1-1.38-1.38A1.37,1.37,0,0,1,60.62,373.93Z" style="fill: rgb(255, 255, 255); stroke: rgb(38, 50, 56); stroke-linecap: round; stroke-miterlimit: 10; transform-origin: 59.24px 373.93px;" id="elogqwixyw53j" class="animable"></path><path d="M67.5,373.93a1.38,1.38,0,1,1-1.38-1.38A1.37,1.37,0,0,1,67.5,373.93Z" style="fill: rgb(255, 255, 255); stroke: rgb(38, 50, 56); stroke-linecap: round; stroke-miterlimit: 10; transform-origin: 66.12px 373.93px;" id="elw4vsu9hsr5f" class="animable"></path></g><g id="freepik--Floor--inject-62" class="animable animator-hidden" style="transform-origin: 250.52px 372.87px;"><line x1="13.62" y1="372.87" x2="487.42" y2="372.87" style="fill: none; stroke: rgb(38, 50, 56); stroke-linecap: round; stroke-linejoin: round; transform-origin: 250.52px 372.87px;" id="elig2r9pzafg" class="animable"></line></g><g id="freepik--character-2--inject-62" class="animable" style="transform-origin: 355.451px 273.142px;"><path d="M314.72,312.68l-6.12,86.47a2.57,2.57,0,0,0,2.76,2.84h0a2.57,2.57,0,0,0,2.33-2.27l6.23-87.47Z" style="fill: rgb(38, 50, 56); stroke: rgb(38, 50, 56); stroke-linecap: round; stroke-linejoin: round; transform-origin: 314.252px 357.124px;" id="elbvpwrk844wq" class="animable"></path><path d="M385.64,323.16l-6.12,96.08a2.56,2.56,0,0,0,2.76,2.83h0a2.55,2.55,0,0,0,2.33-2.27l6.23-97.07Z" style="fill: rgb(38, 50, 56); stroke: rgb(38, 50, 56); stroke-linecap: round; stroke-linejoin: round; transform-origin: 385.172px 372.405px;" id="el07q628yp8cq" class="animable"></path><path d="M418.39,299.89s-.41-35.08,10.21-71l-70.82-6.57s-15.41,56.51-17.83,72Z" style="fill: rgb(38, 50, 56); stroke: rgb(38, 50, 56); stroke-linecap: round; stroke-linejoin: round; transform-origin: 384.275px 261.105px;" id="elbv9jqw3wm0b" class="animable"></path><path d="M414.54,310.61l16.55,94.84a2.55,2.55,0,0,0,3.34,2.11h0a2.56,2.56,0,0,0,1.74-2.75L419.5,309Z" style="fill: rgb(38, 50, 56); stroke: rgb(38, 50, 56); stroke-linecap: round; stroke-linejoin: round; transform-origin: 425.365px 358.346px;" id="elawzw9v46wb" class="animable"></path><path d="M348.14,297.84l16.54,94.84a2.57,2.57,0,0,0,3.35,2.11h0a2.57,2.57,0,0,0,1.74-2.75l-16.68-95.83Z" style="fill: rgb(38, 50, 56); stroke: rgb(38, 50, 56); stroke-linecap: round; stroke-linejoin: round; transform-origin: 358.964px 345.564px;" id="eld14365fb2jj" class="animable"></path><path d="M314.39,306.24l74.35,6a51.84,51.84,0,0,1,29.65-12.35L340,294.33S318.12,297.71,314.39,306.24Z" style="fill: rgb(38, 50, 56); stroke: rgb(38, 50, 56); stroke-linecap: round; stroke-linejoin: round; transform-origin: 366.39px 303.285px;" id="elx4iz59tnihg" class="animable"></path><path d="M388.74,312.24,388.39,327l6.4-3.66s1.37-5,11.44-8.69,9.39-.26,9.39-.26l4.61-2.31-1.84-12.16S396.42,301.63,388.74,312.24Z" style="fill: rgb(38, 50, 56); stroke: rgb(38, 50, 56); stroke-linecap: round; stroke-linejoin: round; transform-origin: 404.31px 313.46px;" id="elkjihlhssz0g" class="animable"></path><polygon points="388.39 326.97 313.68 318.52 314.39 306.24 388.75 312.24 388.39 326.97" style="fill: rgb(38, 50, 56); stroke: rgb(38, 50, 56); stroke-linecap: round; stroke-linejoin: round; transform-origin: 351.215px 316.605px;" id="elo29t0p5mdo" class="animable"></polygon><path d="M300.47,383.33a1.58,1.58,0,0,0-1.1.58,74,74,0,0,1-8.93,9.19c-4.24,3.35-12.36,9.53-14.66,10.59s-.35,4.59.89,5.65,13.94,1.06,19.94-1.24c5.58-2.13,15.41-4.87,16.79-5.25a1.19,1.19,0,0,1,.32-.05c1.42-.09,12-.91,12-6.35,0-4.52-1.9-11.11-2.75-13.83a1.62,1.62,0,0,0-1.69-1.13Z" style="fill: rgb(255, 255, 255); stroke: rgb(38, 50, 56); stroke-linecap: round; stroke-linejoin: round; transform-origin: 300.216px 395.754px;" id="elrg01zgzbpw" class="animable"></path><path d="M292.38,406.69c-8.85,2.87-14.28,2-16.88,1.16a6.23,6.23,0,0,0,1.17,1.49c1.23,1.06,13.94,1.06,19.94-1.24,5.58-2.13,15.41-4.87,16.79-5.25a1.19,1.19,0,0,1,.32-.05c1.42-.09,12-.91,12-6.35v0a1.61,1.61,0,0,0-2.4-1.38c-2.35,1.29-4.93,2.68-6.95,3.7C311.44,401.22,305.44,402.45,292.38,406.69Z" style="fill: rgb(255, 255, 255); stroke: rgb(38, 50, 56); stroke-linecap: round; stroke-linejoin: round; transform-origin: 300.61px 402.443px;" id="elkgyhmlam3ao" class="animable"></path><path d="M327.51,266.4s11.93,1.18,14.67-.58,5.28-7.05,6.26-17.22,1-21.9-1.77-17.8-9.58,20.54-12.71,25.82S327.51,266.4,327.51,266.4Z" style="fill: rgb(38, 50, 56); stroke: rgb(38, 50, 56); stroke-linecap: round; stroke-linejoin: round; transform-origin: 338.276px 248.374px;" id="el3b2c3emyvca" class="animable"></path><path d="M341.85,258.66l-8.27,7.64s-9.35-.67-23,4.51S278,284.5,276.31,289.5s0,11.36.67,13.86c.62,2.33,18.62,63.44,21.4,71a1.6,1.6,0,0,1-.25,1.56c-.48.61.55-6.4.55-5.9s-.84,12.6-.48,14.39a1.61,1.61,0,0,0,1,1.19c2.28.88,8.84,3,14.53,1a23.85,23.85,0,0,0,8.08-4.36,1.6,1.6,0,0,0,.42-1.73c-.46-1.3.38-11.58.15-13.32-.33-2.5-3.17-5.67-4-7.51s-5.51-18-6.17-23.54a75.08,75.08,0,0,0-3.51-16.2A167.91,167.91,0,0,0,302.19,304s23.71,1.5,27.71.17,19-3.34,19.71-3.34,27.54,2.67,37.56-2.84,12.18-15.29,10.69-19-10.52-16.7-13-17.53-10.18-5.35-22.37-5.51A66.9,66.9,0,0,0,341.85,258.66Z" style="fill: rgb(38, 50, 56); stroke: rgb(38, 50, 56); stroke-linecap: round; stroke-linejoin: round; transform-origin: 336.934px 321.68px;" id="elqr5opwa8rip" class="animable"></path><path d="M345.65,236.5s-.8,11.78-1.8,14.38-3.59,7.19-2,7.78,13.18-.39,24.57.6,14.77,1.8,14.77,1.8,1.8-55.31,3.8-63.5,6.39-13.58,4.79-19.37-22.17-1-24.76-.6a7.4,7.4,0,0,0-5.59,3.39C358.43,182.78,347.25,233.5,345.65,236.5Z" style="fill: rgb(168, 168, 168); stroke: rgb(38, 50, 56); stroke-linecap: round; stroke-linejoin: round; transform-origin: 365.735px 218.205px;" id="elmtnquog0h8" class="animable"></path><path d="M371.81,183s-10.27,10-10.57,6.8,2.57-18.13,5.13-19.94,18.88-3.78,21.3-2.87-1.51,19.18-2.57,22.2S371.81,183,371.81,183Z" style="fill: rgb(168, 168, 168); stroke: rgb(38, 50, 56); stroke-linecap: round; stroke-linejoin: round; transform-origin: 374.831px 178.596px;" id="elpzqo4lk8oyj" class="animable"></path><path d="M366.37,169.87a27.44,27.44,0,0,0-.45,5.59c.15,2.41,4.38,7.55,5.89,7.55s15.41-12.84,15.86-16-.91-11.78-.91-11.78Z" style="fill: rgb(255, 255, 255); stroke: rgb(38, 50, 56); stroke-linecap: round; stroke-linejoin: round; transform-origin: 376.837px 169.12px;" id="el1t5g1tx7ypdh" class="animable"></path><path d="M359.28,131.81s-1.52,19.63.15,24.47,4.38,14.49,7.85,15.1,8-.45,13.9-4.23,7.55-11.33,7.55-11.33,3.77-.9,4.68-3.77a32.7,32.7,0,0,0,1.06-7.1A90.86,90.86,0,0,0,393,134.83c-.91-3.63-5-8.16-14-8.46S361.54,129.09,359.28,131.81Z" style="fill: rgb(255, 255, 255); stroke: rgb(38, 50, 56); stroke-linecap: round; stroke-linejoin: round; transform-origin: 376.558px 148.945px;" id="elru36gx4efx" class="animable"></path><path d="M364.41,156.58s.91,1.81,2.27,1.66a10.25,10.25,0,0,0,3.17-1.21" style="fill: none; stroke: rgb(38, 50, 56); stroke-linecap: round; stroke-linejoin: round; transform-origin: 367.13px 157.414px;" id="el1ppeju0dzjr" class="animable"></path><path d="M365.47,161.26s4.55,2.22,8.94-2.92" style="fill: none; stroke: rgb(38, 50, 56); stroke-linecap: round; stroke-linejoin: round; transform-origin: 369.94px 160.038px;" id="el9uduxd8wgrb" class="animable"></path><path d="M369.7,144.34s5.28-1.66,8,.46" style="fill: none; stroke: rgb(38, 50, 56); stroke-linecap: round; stroke-linejoin: round; transform-origin: 373.7px 144.261px;" id="elncywnj7zlre" class="animable"></path><path d="M364,144.19a4.36,4.36,0,0,0-4.38-1.81" style="fill: none; stroke: rgb(38, 50, 56); stroke-linecap: round; stroke-linejoin: round; transform-origin: 361.81px 143.249px;" id="elr3vqp6s4pdf" class="animable"></path><path d="M373.32,148.42c0,1-.4,1.81-.9,1.81s-.91-.81-.91-1.81.4-1.81.91-1.81S373.32,147.42,373.32,148.42Z" style="fill: rgb(38, 50, 56); transform-origin: 372.415px 148.42px;" id="elb5dz5id8pa" class="animable"></path><path d="M361.69,147.21c0,1-.4,1.82-.9,1.82s-.91-.82-.91-1.82.4-1.81.91-1.81S361.69,146.21,361.69,147.21Z" style="fill: rgb(38, 50, 56); transform-origin: 360.785px 147.215px;" id="elb82yepi9hwe" class="animable"></path><path d="M365.92,122.29s-2.72,3.48-4.53,3.48-6.8,3.32-2.11,6,9.66,2,15.1.15,8.76-.45,8,1.06-2.11,6-.9,7.25a27.15,27.15,0,0,0,5,3s-.3,5.74.76,5.89,1.81-1.51,1.81-1.51.45-3.33,2.42-3.63a3.41,3.41,0,0,1,3,.91A22.73,22.73,0,0,0,396,133.47c-.91-6.19-4.38-8.31-4.38-8.31a24.56,24.56,0,0,0-10.27-5.28C375.28,118.52,369.85,118.82,365.92,122.29Z" style="fill: rgb(38, 50, 56); stroke: rgb(38, 50, 56); stroke-linecap: round; stroke-linejoin: round; transform-origin: 376.749px 134.128px;" id="elgrexbkz5ztm" class="animable"></path><path d="M365.11,171.5s-21.66,5.49-23.46,7.89-21.16,49.92-22.56,55.11,2.79,9.59,6.59,9.59,12.38-12.58,12.38-12.58-.2,7.58-.2,8.58-13,22.57-15.38,25.16-1.19,1.8-1.19,1.8,10.18,3.6,16.77-8S362.22,181,362.22,181Z" style="fill: #9A0C0C; stroke: rgb(38, 50, 56); stroke-linecap: round; stroke-linejoin: round; transform-origin: 341.962px 219.539px;" id="elxqwdmct826" class="animable"></path><path d="M355.66,176.71s-6.85,6.84-6.2,8a12.09,12.09,0,0,0,2.77,2.61s-3.58,2.77-3.91,5.7,1.14,30,1.14,30" style="fill: none; stroke: rgb(38, 50, 56); stroke-linecap: round; stroke-linejoin: round; transform-origin: 351.966px 199.865px;" id="elitu9ubehgw" class="animable"></path><line x1="343.57" y1="198.42" x2="344.45" y2="193.17" style="fill: none; stroke: rgb(38, 50, 56); stroke-linecap: round; stroke-linejoin: round; transform-origin: 344.01px 195.795px;" id="elbas08ssdukp" class="animable"></line><line x1="338.06" y1="231.51" x2="342.8" y2="203.08" style="fill: none; stroke: rgb(38, 50, 56); stroke-linecap: round; stroke-linejoin: round; transform-origin: 340.43px 217.295px;" id="elexdsuw9tp3p" class="animable"></line><path d="M316.51,216.32a11.11,11.11,0,0,0-3,6c-.38,3.42.17,18.32,3.4,21s10.05,1.71,12.9-1.71.54-9-1.63-14.74-2.12-8.65-2.12-8.65S321.25,213.66,316.51,216.32Z" style="fill: #9A0C0C; stroke: rgb(38, 50, 56); stroke-linecap: round; stroke-linejoin: round; transform-origin: 322.271px 230.174px;" id="elzjynb96kd6" class="animable"></path><path d="M337.8,388s-.7,9.71-2.12,18-2.12,13.59.18,17.12,9.53,6,13.95,1.59a18.17,18.17,0,0,0,4.94-14.83c-.53-4.41-1.63-9.72-2.14-12.89s2.49-7.59-5.45-9.17S337.8,388,337.8,388Z" style="fill: rgb(255, 255, 255); stroke: rgb(38, 50, 56); stroke-linecap: round; stroke-linejoin: round; transform-origin: 344.628px 407.119px;" id="elrjqwqckjhyp" class="animable"></path><path d="M343.07,424.08c-6.7-.71-8.15-7.53-8.46-10.88-.48,4.38-.3,7.58,1.25,10,2.29,3.53,9.53,6,13.95,1.59a17.46,17.46,0,0,0,4.78-9.41C352.55,419.34,348.73,424.68,343.07,424.08Z" style="fill: rgb(255, 255, 255); stroke: rgb(38, 50, 56); stroke-linecap: round; stroke-linejoin: round; transform-origin: 344.483px 420.178px;" id="elilmcr0j86qp" class="animable"></path><path d="M363,276.31s-11.85,1.84-14.52,12.19-2,53.26-3.84,67.29-4.18,20-5.18,21.87-2.67,3.17-2.17,5.68a85.45,85.45,0,0,1,.67,9.18s5.34-2.5,8.35-1.5,6.34,6,6.34,6,4.34-6,5.34-10.52.5-6.85.84-10.18,9.85-28.39,11.85-39.74,1.84-26.38,1.84-26.38l1-2.17s14.86-2.84,21.71-8,3.84-9.68,1.33-16.53-8.68-8.84-18.2-8.68S365.13,275.81,363,276.31Z" style="fill: rgb(38, 50, 56); stroke: rgb(38, 50, 56); stroke-linecap: round; stroke-linejoin: round; transform-origin: 368.316px 335.916px;" id="elkg8gccra3ib" class="animable"></path><path d="M387.78,168.8s-5.19,31.35-8.38,47.13-2,48.33-.8,49.72,8,6.19,13,14,11.38,20.37,13,21,3.79-11.38,3.79-15,1.6-21,1.2-25.16-2.2-13.38-2.2-17.17,5.79-38.74,8.19-48.33,3.2-11.38,1.2-13.18S396.37,172,396.37,172l-8-4.2Z" style="fill: #9A0C0C; stroke: rgb(38, 50, 56); stroke-linecap: round; stroke-linejoin: round; transform-origin: 397.632px 234.237px;" id="elx4t960jhbwm" class="animable"></path><path d="M394.27,174.1s4.07,11.25,3.42,12.55-6.51,4.24-6.51,4.24,6.51,5.05,6.35,7.16-9.12,19.88-12.38,25.59-4.4,7.49-4.4,8" style="fill: none; stroke: rgb(38, 50, 56); stroke-linecap: round; stroke-linejoin: round; transform-origin: 389.255px 202.87px;" id="elzf8kr3m1d98" class="animable"></path><path d="M389.18,264.46s-13.78,0-17.57,1.59-7.39,4.2-9,7.59-2.19,5.39,0,4.39,8.59-1.79,8.59-1.79,10.18,2.19,13.78,2,9.38-5.19,9.38-5.19Z" style="fill: rgb(255, 255, 255); stroke: rgb(38, 50, 56); stroke-linecap: round; stroke-linejoin: round; transform-origin: 377.768px 271.374px;" id="elx4bog8xan9e" class="animable"></path><path d="M361.82,275.81s6.72-3.7,7.73-4.21,5.21-.5,5.21-.5" style="fill: none; stroke: rgb(38, 50, 56); stroke-linecap: round; stroke-linejoin: round; transform-origin: 368.29px 273.455px;" id="elb73lwbv1u4e" class="animable"></path><path d="M363.17,272.44s6.05-3.52,7.39-3.86a32.13,32.13,0,0,1,4.2-.51" style="fill: none; stroke: rgb(38, 50, 56); stroke-linecap: round; stroke-linejoin: round; transform-origin: 368.965px 270.255px;" id="elkohwhundq5b" class="animable"></path><path d="M415.14,182.18s7.19,2.4,8,4.79,13,55.12,11.58,61.11-40.1,27.28-40.1,27.28l-5.43-10.9,21.17-20.57.2-21.57a104.33,104.33,0,0,1,2-28" style="fill: #9A0C0C; stroke: rgb(38, 50, 56); stroke-linecap: round; stroke-linejoin: round; transform-origin: 412.012px 228.77px;" id="el7z2esinsdmv" class="animable"></path><path d="M315.1,214.08s1.63,6,1.63,8.65,6.53,2.29,7.68.82,1.63-5.39,1.63-5.39,5.23-4.9,3.27-9.8-10.78.49-10.78.49Z" style="fill: rgb(255, 255, 255); stroke: rgb(38, 50, 56); stroke-linecap: round; stroke-linejoin: round; transform-origin: 322.425px 215.496px;" id="elyzzsfmxhgle" class="animable"></path><path d="M328.16,226.81V204.44h-1.47v22.17a27.41,27.41,0,0,1-7.88,2.66v.85h17.53v-.85A38.1,38.1,0,0,1,328.16,226.81Z" style="fill: rgb(255, 255, 255); stroke: rgb(38, 50, 56); stroke-linecap: round; stroke-linejoin: round; transform-origin: 327.575px 217.28px;" id="elx3gwfs5u2v" class="animable"></path><path d="M327.38,205.09h0c5.29,0,9.47-3.91,9.09-8.51l-2.83-15.5H321.12l-2.83,15.5C317.92,201.18,322.1,205.09,327.38,205.09Z" style="fill: rgb(255, 255, 255); stroke: rgb(38, 50, 56); stroke-linecap: round; stroke-linejoin: round; transform-origin: 327.381px 193.085px;" id="elgx7zln9w7y" class="animable"></path><path d="M334.79,192.88H320l-.6,3.29c-.33,4.05,3.35,7.49,8,7.49s8.34-3.44,8-7.49Z" style="fill: #9A0C0C; stroke: rgb(38, 50, 56); stroke-linecap: round; stroke-linejoin: round; transform-origin: 327.401px 198.27px;" id="elf1o260rseeq" class="animable"></path><path d="M314.12,197.9s-.82,2.13,1.14,2.78,5.23-.82,4.41-2.29S316.08,196.6,314.12,197.9Z" style="fill: rgb(255, 255, 255); stroke: rgb(38, 50, 56); stroke-linecap: round; stroke-linejoin: round; transform-origin: 316.875px 198.961px;" id="ellyfhazr2e3" class="animable"></path><path d="M317.06,203s-1.31,1.79-1,2.94,10,3.1,11.59,2.12,1-2.29-.16-2.61-7.84-3.11-9.15-2.78S318.36,202.31,317.06,203Z" style="fill: rgb(255, 255, 255); stroke: rgb(38, 50, 56); stroke-linecap: round; stroke-linejoin: round; transform-origin: 322.316px 205.485px;" id="el7fh0bnicwgs" class="animable"></path><path d="M316.08,205.91s-1.64,2-1.15,3.27,1.8,1.79,3.43,2.12,8.17,1.31,9.48.65,0-2.94-1.31-3.43S317.87,206.73,316.08,205.91Z" style="fill: rgb(255, 255, 255); stroke: rgb(38, 50, 56); stroke-linecap: round; stroke-linejoin: round; transform-origin: 321.611px 209.042px;" id="elt933tjikwjg" class="animable"></path><path d="M315.91,210.81s-2.12,1.63-.81,3.27,9.47.81,10.61.49,1.64-1.64.82-2S315.91,210.81,315.91,210.81Z" style="fill: rgb(255, 255, 255); stroke: rgb(38, 50, 56); stroke-linecap: round; stroke-linejoin: round; transform-origin: 320.804px 212.938px;" id="elismkx65euf" class="animable"></path><path d="M330.94,206.56s-4.08-1.14-3.27,1.47.82,4.9,2.29,5.23,1.8-2.94,1.8-4.25A4.8,4.8,0,0,0,330.94,206.56Z" style="fill: rgb(255, 255, 255); stroke: rgb(38, 50, 56); stroke-linecap: round; stroke-linejoin: round; transform-origin: 329.662px 209.798px;" id="elbawh6no1li" class="animable"></path><path d="M336.58,269s9.19,4,14.36,11.18" style="fill: none; stroke: rgb(133, 133, 133); stroke-linecap: round; stroke-linejoin: round; transform-origin: 343.76px 274.59px;" id="elje0vldvtcpd" class="animable"></path><path d="M341.26,274.14s6.18,3.68,8.51,8" style="fill: none; stroke: rgb(133, 133, 133); stroke-linecap: round; stroke-linejoin: round; transform-origin: 345.515px 278.14px;" id="elyd7e3dtfz7r" class="animable"></path><path d="M367.94,202.4s-3.66,28.59-5,35.22" style="fill: none; stroke: rgb(38, 50, 56); stroke-linecap: round; stroke-linejoin: round; transform-origin: 365.44px 220.01px;" id="eltu35r99hi5c" class="animable"></path><line x1="361.53" y1="243.57" x2="360.39" y2="252.26" style="fill: none; stroke: rgb(38, 50, 56); stroke-linecap: round; stroke-linejoin: round; transform-origin: 360.96px 247.915px;" id="elw1wzgqnh3f" class="animable"></line></g><g id="freepik--character-1--inject-62" class="animable" style="transform-origin: 168.768px 300.945px;"><path d="M159.79,138.43s4.45,6,1.57,12.81c-1.64,3.88-.26,8.36,1.31,9.4s1.57,5-.52,6.28-4.71,8.62-7.85,12.54-4.63,2.69-5.75,3.4-3.39-1.83-3.39-1.83-5-13.59.26-25.35A40.54,40.54,0,0,1,159.79,138.43Z" style="fill: rgb(255, 255, 255); stroke: rgb(38, 50, 56); stroke-linecap: round; stroke-linejoin: round; transform-origin: 153.401px 160.708px;" id="eleprefw2zzlq" class="animable"></path><ellipse cx="158.49" cy="156.46" rx="1.05" ry="2.88" style="fill: rgb(38, 50, 56); transform-origin: 158.49px 156.46px;" id="el3t12ev3xf7x" class="animable"></ellipse><path d="M158.22,150.45s2.62-1.57,3.14.79" style="fill: none; stroke: rgb(38, 50, 56); stroke-linecap: round; stroke-linejoin: round; transform-origin: 159.79px 150.589px;" id="elrlgjpm72z3" class="animable"></path><path d="M159.27,171.1s-3.92-1-3.92-2.61" style="fill: none; stroke: rgb(38, 50, 56); stroke-linecap: round; stroke-linejoin: round; transform-origin: 157.31px 169.795px;" id="elsxk2adsez2p" class="animable"></path><path d="M186.79,257.08V234.71h-1.47v22.18a27.44,27.44,0,0,1-7.89,2.65v.86H195v-.86A36.65,36.65,0,0,1,186.79,257.08Z" style="fill: rgb(255, 255, 255); stroke: rgb(38, 50, 56); stroke-linecap: round; stroke-linejoin: round; transform-origin: 186.215px 247.555px;" id="elf4pqauxd7dw" class="animable"></path><path d="M186,235.37h0c5.29,0,9.46-3.91,9.09-8.51l-2.83-15.51H179.75l-2.83,15.51C176.55,231.46,180.72,235.37,186,235.37Z" style="fill: rgb(255, 255, 255); stroke: rgb(38, 50, 56); stroke-linecap: round; stroke-linejoin: round; transform-origin: 186.005px 223.36px;" id="elh3zqdzhc43k" class="animable"></path><path d="M193.42,223.15H178.6l-.6,3.29c-.33,4.05,3.35,7.5,8,7.5s8.34-3.45,8-7.5Z" style="fill: #9A0C0C; stroke: rgb(38, 50, 56); stroke-linecap: round; stroke-linejoin: round; transform-origin: 186.001px 228.545px;" id="elf7m0k307msn" class="animable"></path><path d="M199.37,419.5s7.72,18,10.45,19.61,18.32,6.11,17.2,9.17-19.13,3.05-25.4.48-12.86-11.9-18.33-13.67l-5.46-1.76-.32,16.07h-3.38s-2.57-26.2-1.93-28,3.54-5.14,3.54-5.14Z" style="fill: rgb(255, 255, 255); stroke: rgb(38, 50, 56); stroke-linecap: round; stroke-linejoin: round; transform-origin: 199.588px 433.447px;" id="elua7ejbpok3a" class="animable"></path><path d="M227,448.28c.85-2.31-7.81-5.43-13.29-7.52-.39.43-.83.89-1.34,1.41-2.57,2.57-7.88,1-16.08-6.11-7.16-6.19-15.56-16.8-17.56-19.36l-3-.41s-2.89,3.37-3.54,5.14,1.93,28,1.93,28h3.38l.32-16.07,5.46,1.76c5.47,1.77,12.06,11.1,18.33,13.67S225.89,451.33,227,448.28Z" style="fill: #9A0C0C; stroke: rgb(38, 50, 56); stroke-linecap: round; stroke-linejoin: round; transform-origin: 199.572px 433.469px;" id="elpv0ep1f9d1" class="animable"></path><path d="M247.59,369s9.33,10.12,11.26,11.09,3.53,1.12,7.55,1,8.68-.64,8.36,1.45-10,14.47-13.82,15.59-14.15-4.5-17.36-5.3-2.9.8-2.42,1.61,1.61,13.34,1.61,13.34a1.73,1.73,0,0,1-1.77,1.12h-1.44s-8.68-17.84-10.13-20.57a7.54,7.54,0,0,1-1-4.83Z" style="fill: rgb(255, 255, 255); stroke: rgb(38, 50, 56); stroke-linecap: round; stroke-linejoin: round; transform-origin: 251.571px 388.953px;" id="elijmj2ckgiwn" class="animable"></path><path d="M266.4,381.08a29.66,29.66,0,0,1-4.33,0v0a6,6,0,0,1,1.45,5.63c-1,3.21-7.72,3.7-10.93,2.25-2.35-1.06-13.62-6.23-19.52-8.94l-4.6,3.47a7.54,7.54,0,0,0,1,4.83c1.45,2.73,10.13,20.57,10.13,20.57H241a1.73,1.73,0,0,0,1.77-1.12s-1.12-12.54-1.61-13.34-.8-2.42,2.42-1.61,13.5,6.43,17.36,5.3,13.5-13.5,13.82-15.59S270.42,380.92,266.4,381.08Z" style="fill: #9A0C0C; stroke: rgb(38, 50, 56); stroke-linecap: round; stroke-linejoin: round; transform-origin: 251.591px 394.458px;" id="elsgzb1iqj5" class="animable"></path><path d="M157.3,292.11s28-7.6,40-11.48,25.31-3.24,29.14,3.53S250,370.7,250,370.7s-3.82,7.95-9.41,11.48-17.08,5.88-17.08,5.88v33s-9.42,3.53-22.66.59-26.2-5-26.2-5L185,399.25,192,338s-38.56,12.36-65.35,11.18S91.37,333,90.78,326.55s13.54-13.84,14.72-15S157.3,292.11,157.3,292.11Z" style="fill: rgb(255, 255, 255); stroke: rgb(38, 50, 56); stroke-linecap: round; stroke-linejoin: round; transform-origin: 170.381px 350.533px;" id="elolj1zfi0xlo" class="animable"></path><path d="M166.74,279.19s9.36,1,11.55.8,9.56,2.19,11.75,3,10.75,3.39,9.35,4.78-3.58.6-5.37,0-7.37-1.39-8.36-1.59a19.53,19.53,0,0,0-4.19.4s8.57,1.59,7.57,2.78a3.73,3.73,0,0,1-3.78,1.4,30.15,30.15,0,0,0-4.78-.6s-4.58,1.19-8.16.4A41.07,41.07,0,0,1,165,288Z" style="fill: rgb(255, 255, 255); stroke: rgb(38, 50, 56); stroke-linecap: round; stroke-linejoin: round; transform-origin: 182.272px 285.018px;" id="elivunc2g8k9" class="animable"></path><polygon points="157.69 278.15 166.74 279.19 165.35 291.93 145.9 291.84 157.69 278.15" style="fill: #9A0C0C; stroke: rgb(38, 50, 56); stroke-linecap: round; stroke-linejoin: round; transform-origin: 156.32px 285.04px;" id="el6xze1puo7ii" class="animable"></polygon><path d="M194.86,324.07c13.39-9.42,21.77-16.85,25.14-16.07,3.83.88,7.95,3.24,7.65,14.72s-4.12,59.16-4.12,59.16" style="fill: none; stroke: rgb(38, 50, 56); stroke-linecap: round; stroke-linejoin: round; transform-origin: 211.263px 344.912px;" id="el30ijr210iph" class="animable"></path><path d="M154.07,343.62a123.6,123.6,0,0,0,35-15.6c1.12-.74,2.2-1.48,3.26-2.21" style="fill: none; stroke: rgb(38, 50, 56); stroke-linecap: round; stroke-linejoin: round; transform-origin: 173.2px 334.715px;" id="elngo4kwi7g4k" class="animable"></path><path d="M210.29,328.14a26.46,26.46,0,0,0,2.94-4.24" style="fill: none; stroke: rgb(38, 50, 56); stroke-linecap: round; stroke-linejoin: round; transform-origin: 211.76px 326.02px;" id="eldt7jjrgb3gi" class="animable"></path><path d="M192,338a30.94,30.94,0,0,0,15.33-6.95" style="fill: none; stroke: rgb(38, 50, 56); stroke-linecap: round; stroke-linejoin: round; transform-origin: 199.665px 334.525px;" id="elzh91u78kt8f" class="animable"></path><path d="M225.59,293s3.54,5.3-5.29,12.95" style="fill: none; stroke: rgb(38, 50, 56); stroke-linecap: round; stroke-linejoin: round; transform-origin: 223.296px 299.475px;" id="el2kwlifnu48k" class="animable"></path><path d="M91.79,249.91l1.84,28.25-4.75,48.31s16.63,1.31,40.13-9,34.05-24.81,34.05-24.81l-7.72-11.13-8.12-27.41s8.45-31.15,6.87-43.82-16.37-19.27-16.37-19.27S92.84,205.83,91.79,249.91Z" style="fill: #9A0C0C; stroke: rgb(38, 50, 56); stroke-linecap: round; stroke-linejoin: round; transform-origin: 125.97px 258.777px;" id="eldfnjic8u5va" class="animable"></path><path d="M141.68,187.61l11.61,5.28s.44,6.71.44,7.5-16-6.44-16-6.44Z" style="fill: #9A0C0C; stroke: rgb(38, 50, 56); stroke-linecap: round; stroke-linejoin: round; transform-origin: 145.73px 194.03px;" id="el3tbdsbojfzu" class="animable"></path><path d="M174.89,252.6a29.06,29.06,0,0,0,2.82-4.78c.42-1.41.28-3.52,1.68-4.79a7.21,7.21,0,0,0,2.54-4.78c.42-2.4.42-3.81,1.55-3.81s1.4,2.82,1.4,2.82,2.4-.42,3-1.41.7-2.25,2.53-1.83,2.54,2.11,2,3a4.77,4.77,0,0,0-.7,1.55,26.64,26.64,0,0,1,1.83,8.44c0,3.94-.7,4.51-2.39,6.34s-6.62,3.52-6.62,3.52l-3.1,2.39Z" style="fill: rgb(255, 255, 255); stroke: rgb(38, 50, 56); stroke-linecap: round; stroke-linejoin: round; transform-origin: 184.215px 246.599px;" id="elv7yyglmrr9" class="animable"></path><path d="M184.88,237.26a8.93,8.93,0,0,0-2.39,3.24" style="fill: rgb(255, 255, 255); stroke: rgb(38, 50, 56); stroke-linecap: round; stroke-linejoin: round; transform-origin: 183.685px 238.88px;" id="elz0i35s3j3w" class="animable"></path><line x1="191.64" y1="238.53" x2="190.51" y2="240.92" style="fill: rgb(255, 255, 255); stroke: rgb(38, 50, 56); stroke-linecap: round; stroke-linejoin: round; transform-origin: 191.075px 239.725px;" id="el5wbudn9viva" class="animable"></line><path d="M145.64,197.91s9.5,2.64,11.08,12.14,2.64,52,2.64,52l15.58-10.56a9.8,9.8,0,0,1,5.81,3.69c2.37,3.17,1.84,4.75,1.84,4.75s-18.74,21.91-22.17,25.34-10,7.66-12.93,4.23-12.94-44.88-14.26-48.57-6.33-13.47-6.33-13.47" style="fill: #9A0C0C; stroke: rgb(38, 50, 56); stroke-linecap: round; stroke-linejoin: round; transform-origin: 154.77px 244.34px;" id="elob2jtb8251h" class="animable"></path><line x1="133.23" y1="240.94" x2="130.25" y2="223.68" style="fill: none; stroke: rgb(38, 50, 56); stroke-linecap: round; stroke-linejoin: round; transform-origin: 131.74px 232.31px;" id="el58e6wmitsaw" class="animable"></line><path d="M136.91,123.83s-11.85-.87-18.69,5.09S108.83,158.2,107.34,160s-16.88,12.67-16,22.5,3.38,10.68,2.19,13.06-15.48,8.94-14.88,18.17,8,14.29,8.63,19.35.89,16.08,6.85,19.65,7.44,1.49,11.91-9.52.89-14.89,14.89-21.15,14.59-14.88,13.7-19.05,7-6.21,13.57-11.27,3.85-10.34.91-13.71c-6.07-7-3.55-14.74-1.31-20.5,1.3-3.38,13.37-8.81,15.46-15.06s-3.89-20.64-9.55-20.64-7.58,1.41-7.58,1.41Z" style="fill: rgb(38, 50, 56); stroke: rgb(38, 50, 56); stroke-linecap: round; stroke-linejoin: round; transform-origin: 121.159px 188.08px;" id="el1963q5e8flei" class="animable"></path><path d="M133.14,355,125.3,476.41a3.29,3.29,0,0,0,3.53,3.64h0a3.27,3.27,0,0,0,3-2.91l8-122.67Z" style="fill: rgb(38, 50, 56); stroke: rgb(38, 50, 56); stroke-linecap: round; stroke-linejoin: round; transform-origin: 132.555px 417.265px;" id="elfg8wqduudif" class="animable"></path><path d="M146.29,349.83,154.62,431a2.8,2.8,0,0,1-3,3.1h0a2.8,2.8,0,0,1-2.55-2.48l-8.45-82.26Z" style="fill: rgb(38, 50, 56); stroke: rgb(38, 50, 56); stroke-linecap: round; stroke-linejoin: round; transform-origin: 147.629px 391.734px;" id="elg9ftdct0bna" class="animable"></path><path d="M71.49,338.24,62.78,445.72a3.07,3.07,0,0,0,3.31,3.4h0a3.08,3.08,0,0,0,2.8-2.72l8.84-108.68Z" style="fill: rgb(38, 50, 56); stroke: rgb(38, 50, 56); stroke-linecap: round; stroke-linejoin: round; transform-origin: 70.2455px 393.425px;" id="el4my4ojix91u" class="animable"></path><path d="M197.45,348.36l11.81,109.45a3.29,3.29,0,0,1-3.54,3.64h0a3.29,3.29,0,0,1-3-2.91L190.79,347.8Z" style="fill: rgb(38, 50, 56); stroke: rgb(38, 50, 56); stroke-linecap: round; stroke-linejoin: round; transform-origin: 200.035px 404.631px;" id="el9th3pa0nrl8" class="animable"></path><path d="M65.13,267.28a2.74,2.74,0,0,1,2.56-4.3c13.48,1.51,48.82,8.88,52.11,12.59,4.45,5,13.34,38.89,13.89,53.34s0,17.78,0,17.78L72.07,334.24s.87-30.24-.54-47.08C70.7,277.28,67.82,271.05,65.13,267.28Z" style="fill: rgb(38, 50, 56); stroke: rgb(38, 50, 56); stroke-linecap: round; stroke-linejoin: round; transform-origin: 99.2819px 304.826px;" id="elbm9f10s0o6k" class="animable"></path><path d="M133.69,346.69l7.6-2.24a187.67,187.67,0,0,1,49.26-7.61l7.6-.15,1.11,17.22-5,1.11a68.67,68.67,0,0,0-31.67-1.66,100.62,100.62,0,0,0-30,11.66Z" style="fill: rgb(38, 50, 56); stroke: rgb(38, 50, 56); stroke-linecap: round; stroke-linejoin: round; transform-origin: 165.925px 350.855px;" id="eljtumryl8ji" class="animable"></path><polygon points="132.58 365.02 70.42 351.61 72.06 334.24 133.69 346.69 132.58 365.02" style="fill: rgb(38, 50, 56); stroke: rgb(38, 50, 56); stroke-linecap: round; stroke-linejoin: round; transform-origin: 102.055px 349.63px;" id="elb27rlhbt9qa" class="animable"></polygon><path d="M127.54,305.92s3.32,13.27,3,22.92-.61,16.59-.61,16.59" style="fill: rgb(38, 50, 56); stroke: rgb(38, 50, 56); stroke-linecap: round; stroke-linejoin: round; transform-origin: 129.051px 325.675px;" id="elaxtbym3ga5v" class="animable"></path><path d="M74.69,292.91s1.51,16.88,1.21,26.53-.31,15.08-.31,15.08" style="fill: rgb(38, 50, 56); stroke: rgb(38, 50, 56); stroke-linecap: round; stroke-linejoin: round; transform-origin: 75.3147px 313.715px;" id="elrh9kdynb04" class="animable"></path></g><g id="freepik--Table--inject-62" class="animable" style="transform-origin: 273.96px 324.935px;"><ellipse cx="273.97" cy="441.32" rx="47.5" ry="9.97" style="fill: rgb(38, 50, 56); stroke: rgb(38, 50, 56); stroke-linecap: round; stroke-linejoin: round; transform-origin: 273.97px 441.32px;" id="eltns9omm4ydo" class="animable"></ellipse><path d="M271.86,442.58h0a3.83,3.83,0,0,1-3.83-3.83V277.67a3.84,3.84,0,0,1,3.83-3.83h0a3.84,3.84,0,0,1,3.84,3.83V438.75A3.83,3.83,0,0,1,271.86,442.58Z" style="fill: rgb(38, 50, 56); stroke: rgb(38, 50, 56); stroke-linecap: round; stroke-linejoin: round; transform-origin: 271.865px 358.21px;" id="elhiv31b0jt3p" class="animable"></path><path d="M370.7,271.21C360.46,265.29,321,260.88,274,260.88c-45.52,0-83.89,4.12-95.62,9.75h-3.74l0,3.63c0,7.39,44.47,13.38,99.31,13.38s99.32-6,99.32-13.38v-3Z" style="fill: rgb(38, 50, 56); stroke: rgb(38, 50, 56); stroke-linecap: round; stroke-linejoin: round; transform-origin: 273.955px 274.26px;" id="elxsq26yowvld" class="animable"></path><ellipse cx="273.97" cy="271.22" rx="99.31" ry="13.37" style="fill: rgb(255, 255, 255); stroke: rgb(38, 50, 56); stroke-linecap: round; stroke-linejoin: round; transform-origin: 273.97px 271.22px;" id="elrecdfe6y5ii" class="animable"></ellipse><polygon points="256.73 255.19 267.9 254.25 288.55 255.52 277.95 256.52 256.73 255.19" style="fill: rgb(255, 255, 255); stroke: rgb(38, 50, 56); stroke-linecap: round; stroke-linejoin: round; transform-origin: 272.64px 255.385px;" id="el91mvhacsik" class="animable"></polygon><path d="M266.6,252.85s-2.18-1.23-2.45-5.73a62.09,62.09,0,0,1,.14-9.82c.13-.41,4.5,5.18,6,7.36a42.24,42.24,0,0,1,3,5.6s.41-3.41,4.22-7.78a58.07,58.07,0,0,1,7.37-7.09,116.48,116.48,0,0,1-3.15,14.14c-1.76,5.36-2.58,6-2.58,6S270.42,260.76,266.6,252.85Z" style="fill: #9A0C0C; stroke: rgb(38, 50, 56); stroke-linecap: round; stroke-linejoin: round; transform-origin: 274.45px 246.308px;" id="elz2s9qusa4kk" class="animable"></path><path d="M273.26,254.94a137.28,137.28,0,0,1-1.7-18.29,55.2,55.2,0,0,1,2.13-14.74" style="fill: none; stroke: rgb(38, 50, 56); stroke-linecap: round; stroke-linejoin: round; transform-origin: 272.625px 238.425px;" id="el37ew1gvle1o" class="animable"></path><path d="M272.88,224.48s0-2.7-.13-3.64a4.6,4.6,0,0,1,.94-2.43,27.3,27.3,0,0,1,1.75,4l.41,1.49Z" style="fill: #9A0C0C; stroke: rgb(38, 50, 56); stroke-linecap: round; stroke-linejoin: round; transform-origin: 274.3px 221.445px;" id="el6kcg82o7ilm" class="animable"></path><path d="M272.06,221.07s-3.27-.95-4.23-3.13,2.73-.28,2.73-.28-3.55-6.13-1.23-7.36,4,3.95,4,3.95-1.23-9.27.95-7.77,2.18,6.41,2.18,6.41,1.91-6.95,4-5.18.27,6.41.27,6.41,4.5-4.77,5.18-2.46-2.59,5.46-2.59,5.46,4.23-1.91,4.23.27-4.23,3.27-4.23,3.27,4.77,1.64,3.41,3.55-5.32-.55-5.32-.55.82,3,0,3.82-3.27-2.59-3.27-2.59-.68,2.18-2.18,2.59-.72-5.18-.72-5.18-1.87,3.55-4.6,3S272.06,221.07,272.06,221.07Z" style="fill: rgb(255, 255, 255); stroke: rgb(38, 50, 56); stroke-linecap: round; stroke-linejoin: round; transform-origin: 277.61px 216.962px;" id="eljg29fvfu379" class="animable"></path><path d="M278.74,218.48a1.84,1.84,0,1,1-1.84-1.77A1.81,1.81,0,0,1,278.74,218.48Z" style="fill: #9A0C0C; stroke: rgb(38, 50, 56); stroke-linecap: round; stroke-linejoin: round; transform-origin: 276.901px 218.55px;" id="elh64l3wq1pif" class="animable"></path><path d="M262.77,255.22a13.51,13.51,0,0,1-4.53-3.26,39.45,39.45,0,0,0-6-4.82s2.7-2.27,8.65.42,7.94,4.68,7.94,4.68-.57-1.7-1-3.54a24.7,24.7,0,0,1-.43-4.54s6,5.11,7.23,7,2,1.84,2,1.84a18.31,18.31,0,0,1,4-4,104.71,104.71,0,0,1,10.77-5.38c.43-.15.28,2.12,0,4.82s-6.8,7.51-7.23,7.65-3.69,1.42-3.69,1.42-9.64-1-12.75-1.14-6-.42-6-.42Z" style="fill: #9A0C0C; stroke: rgb(38, 50, 56); stroke-linecap: round; stroke-linejoin: round; transform-origin: 271.955px 250.561px;" id="ela46k2ubn3kd" class="animable"></path><polygon points="256.73 255.19 261.46 266.81 275.63 268.45 277.95 256.52 256.73 255.19" style="fill: rgb(214, 214, 214); stroke: rgb(38, 50, 56); stroke-linecap: round; stroke-linejoin: round; transform-origin: 267.34px 261.82px;" id="elpbw21kv0dqr" class="animable"></polygon><polygon points="277.95 256.52 288.55 255.52 283.25 266.8 275.63 268.45 277.95 256.52" style="fill: rgb(214, 214, 214); stroke: rgb(38, 50, 56); stroke-linecap: round; stroke-linejoin: round; transform-origin: 282.09px 261.985px;" id="elj5p6g7a7ldr" class="animable"></polygon><path d="M254.36,198.79a19.58,19.58,0,0,1-5.72,0,19.58,19.58,0,0,1,5.72,0Z" style="fill: rgb(255, 255, 255); stroke: rgb(38, 50, 56); stroke-linecap: round; stroke-linejoin: round; transform-origin: 251.5px 198.79px;" id="elj1jaew1ugn8" class="animable"></path><path d="M254.36,214.53V198.77h-5.72v15.76a4.33,4.33,0,0,1-1.2,3c-1.29,1.38-4.3,4.48-4.38,7.32s0,42.48,0,42.48a5.23,5.23,0,0,0,3.09,1.81c1.9.26,11.44,0,11.44,0s2.07-.6,2.24-2.32.26-41.37.09-42.83a13.49,13.49,0,0,0-2.84-5.34C256,217.32,254.39,216.46,254.36,214.53Z" style="fill: rgb(38, 50, 56); stroke: rgb(38, 50, 56); stroke-linecap: round; stroke-linejoin: round; transform-origin: 251.518px 234.013px;" id="el7atgezjb707" class="animable"></path><path d="M254.36,213.11V198.77h-5.72v14.34h0a10,10,0,0,0,5.7,0Z" style="fill: #9A0C0C; stroke: rgb(38, 50, 56); stroke-linecap: round; stroke-linejoin: round; transform-origin: 251.5px 206.147px;" id="elqz4g4lj5jx" class="animable"></path><path d="M248.23,200.21v2.27c0,.25,1.47.46,3.27.46s3.26-.21,3.26-.46v-2.27Z" style="fill: #9A0C0C; stroke: rgb(38, 50, 56); stroke-linecap: round; stroke-linejoin: round; transform-origin: 251.495px 201.575px;" id="eladz5luckpy" class="animable"></path><path d="M243,255H260c0-9.35.06-21.78,0-27.69H243C243,232.72,243,245.36,243,255Z" style="fill: rgb(255, 255, 255); stroke: rgb(38, 50, 56); stroke-linecap: round; stroke-linejoin: round; transform-origin: 251.513px 241.155px;" id="eliyaitb4jg68" class="animable"></path></g><defs>     <filter id="active" height="200%">         <feMorphology in="SourceAlpha" result="DILATED" operator="dilate" radius="2"></feMorphology>                <feFlood flood-color="#32DFEC" flood-opacity="1" result="PINK"></feFlood>        <feComposite in="PINK" in2="DILATED" operator="in" result="OUTLINE"></feComposite>        <feMerge>            <feMergeNode in="OUTLINE"></feMergeNode>            <feMergeNode in="SourceGraphic"></feMergeNode>        </feMerge>    </filter>    <filter id="hover" height="200%">        <feMorphology in="SourceAlpha" result="DILATED" operator="dilate" radius="2"></feMorphology>                <feFlood flood-color="#ff0000" flood-opacity="0.5" result="PINK"></feFlood>        <feComposite in="PINK" in2="DILATED" operator="in" result="OUTLINE"></feComposite>        <feMerge>            <feMergeNode in="OUTLINE"></feMergeNode>            <feMergeNode in="SourceGraphic"></feMergeNode>        </feMerge>            <feColorMatrix type="matrix" values="0   0   0   0   0                0   1   0   0   0                0   0   0   0   0                0   0   0   1   0 "></feColorMatrix>    </filter></defs></svg>